<svg id="圖層_1" data-name="圖層 1" xmlns="http://www.w3.org/2000/svg" viewBox="0 0 89.66 14.44"><defs><style>.cls-1{fill:#fff;}</style></defs><path class="cls-1" d="M1.62,3.8l1.1,0c.46,0,.9,0,1.34,0,.63,0,1.23,0,1.8,0l1.22,0a5.21,5.21,0,0,1,3.62,1.1,3.67,3.67,0,0,1,1.2,2.84,5.21,5.21,0,0,1-.24,1.51,3.83,3.83,0,0,1-.83,1.46,4.2,4.2,0,0,1-1.61,1.09,6.82,6.82,0,0,1-2.58.42H4.72v-.4H6.44a3.68,3.68,0,0,0,2.17-.54,2.66,2.66,0,0,0,1-1.42A6.46,6.46,0,0,0,9.9,8a4.5,4.5,0,0,0-.75-2.84A3.09,3.09,0,0,0,6.58,4.2a1.55,1.55,0,0,0-1.2.34A2.4,2.4,0,0,0,5.1,5.92v9.92a3,3,0,0,0,.15,1.08.83.83,0,0,0,.59.48,6.65,6.65,0,0,0,1.28.16V18c-.34,0-.78,0-1.32-.05H2.72c-.45,0-.82,0-1.1.05v-.4a4.19,4.19,0,0,0,1-.16.71.71,0,0,0,.47-.48,3.64,3.64,0,0,0,.12-1.08V5.92a3.63,3.63,0,0,0-.12-1.09.75.75,0,0,0-.47-.48,3.16,3.16,0,0,0-1-.15Z" transform="translate(-1.62 -3.8)"/><path class="cls-1" d="M23.3,3.8c-.05.47-.09.92-.11,1.36s0,.78,0,1,0,.47,0,.69,0,.4,0,.55h-.46a9.3,9.3,0,0,0-.34-1.87,1.56,1.56,0,0,0-.75-1,3.43,3.43,0,0,0-1.59-.29H18.42a3.83,3.83,0,0,0-1,.11.7.7,0,0,0-.47.46,3.63,3.63,0,0,0-.12,1.09v9.92a3.64,3.64,0,0,0,.12,1.08.69.69,0,0,0,.47.47,3.83,3.83,0,0,0,1,.11h1.46a4.18,4.18,0,0,0,1.91-.34,1.93,1.93,0,0,0,.94-1.11A8.24,8.24,0,0,0,23.16,14h.46a13.66,13.66,0,0,0-.06,1.44c0,.25,0,.62,0,1.09s.06,1,.11,1.47l-2.3-.05H16.5l-1.62,0-1.56,0v-.4a4.19,4.19,0,0,0,1-.16.71.71,0,0,0,.47-.48,3.64,3.64,0,0,0,.12-1.08V5.92a3.63,3.63,0,0,0-.12-1.09.75.75,0,0,0-.47-.48,3.16,3.16,0,0,0-1-.15V3.8l1.56,0,1.62,0h4.71C22,3.84,22.69,3.83,23.3,3.8Zm-3.44,6.84V11H16.2v-.4ZM20.44,8c-.05.76-.07,1.34-.07,1.74s0,.77,0,1.1,0,.7,0,1.1.05,1,.1,1.74H20c-.05-.43-.11-.84-.19-1.25a1.85,1.85,0,0,0-.48-1A1.66,1.66,0,0,0,18.12,11v-.4a1.62,1.62,0,0,0,1-.27,1.46,1.46,0,0,0,.51-.69,3.7,3.7,0,0,0,.22-.87q.06-.45.12-.81Z" transform="translate(-1.62 -3.8)"/><path class="cls-1" d="M25.5,3.8l1.1,0c.46,0,.9,0,1.34,0,.63,0,1.23,0,1.8,0l1.22,0a7,7,0,0,1,2.69.46,3.49,3.49,0,0,1,1.6,1.25,3.07,3.07,0,0,1,.53,1.77,3.84,3.84,0,0,1-.24,1.28,3.43,3.43,0,0,1-.83,1.28,4.42,4.42,0,0,1-1.61,1,7.3,7.3,0,0,1-2.58.39H28.6v-.4h1.72a4.26,4.26,0,0,0,2.17-.45,2.28,2.28,0,0,0,1-1.2,4.92,4.92,0,0,0,.27-1.67A3.64,3.64,0,0,0,33,5.07a3.24,3.24,0,0,0-2.57-.87,1.55,1.55,0,0,0-1.2.34A2.4,2.4,0,0,0,29,5.92v9.92a3.64,3.64,0,0,0,.12,1.08.73.73,0,0,0,.47.48,4.36,4.36,0,0,0,1,.16V18l-1.15-.05H26.6c-.45,0-.82,0-1.1.05v-.4a4.19,4.19,0,0,0,1-.16.71.71,0,0,0,.47-.48,3.64,3.64,0,0,0,.12-1.08V5.92A3.63,3.63,0,0,0,27,4.83a.75.75,0,0,0-.47-.48,3.16,3.16,0,0,0-1-.15Zm3.18,7.1,1.7.09,1,.09.75.1a3.51,3.51,0,0,1,1.93.81,3.56,3.56,0,0,1,.87,1.83l.5,2a5.69,5.69,0,0,0,.41,1.27.66.66,0,0,0,.65.37.86.86,0,0,0,.57-.22,3,3,0,0,0,.49-.54l.3.22a3.7,3.7,0,0,1-.87.95,2.11,2.11,0,0,1-1.27.33,2.08,2.08,0,0,1-1.3-.44,3,3,0,0,1-.84-1.72l-.44-2a10.13,10.13,0,0,0-.41-1.49,2.27,2.27,0,0,0-.64-1,1.77,1.77,0,0,0-1.21-.36H28.72Z" transform="translate(-1.62 -3.8)"/><path class="cls-1" d="M48.44,3.8c0,.51-.09,1-.11,1.47s0,.84,0,1.09,0,.62,0,.9,0,.53,0,.74H47.9a12.24,12.24,0,0,0-.38-2.21,1.93,1.93,0,0,0-.84-1.17,3.72,3.72,0,0,0-1.86-.36H43.56a3.83,3.83,0,0,0-1,.11.7.7,0,0,0-.47.46,3.63,3.63,0,0,0-.12,1.09v9.92a3,3,0,0,0,.15,1.08.83.83,0,0,0,.59.48,6.65,6.65,0,0,0,1.28.16V18c-.34,0-.78,0-1.32-.05H39.56c-.45,0-.82,0-1.1.05v-.4a4.19,4.19,0,0,0,1-.16.71.71,0,0,0,.47-.48,3.64,3.64,0,0,0,.12-1.08V5.92A3.63,3.63,0,0,0,40,4.83a.75.75,0,0,0-.47-.48,3.16,3.16,0,0,0-1-.15V3.8l1.56,0,1.62,0h4.71C47.13,3.84,47.83,3.83,48.44,3.8Zm-3.1,7v.4h-4v-.4Zm.38-2.64c0,.76-.07,1.34-.07,1.74s0,.77,0,1.1,0,.7,0,1.1,0,1,.1,1.74h-.46c0-.42-.11-.84-.19-1.25a1.88,1.88,0,0,0-.48-1,1.66,1.66,0,0,0-1.25-.39v-.4a1.62,1.62,0,0,0,1-.27,1.46,1.46,0,0,0,.51-.69A3.7,3.7,0,0,0,45.14,9q.06-.45.12-.81Z" transform="translate(-1.62 -3.8)"/><path class="cls-1" d="M62.1,3.8v.4a2.46,2.46,0,0,0-1,.2A.92.92,0,0,0,60.6,5a4.21,4.21,0,0,0-.12,1.14v6a14.48,14.48,0,0,1-.18,2.44,5,5,0,0,1-.64,1.8,3.61,3.61,0,0,1-1.46,1.35,4.61,4.61,0,0,1-2.2.51A7.28,7.28,0,0,1,54.17,18a3.51,3.51,0,0,1-1.53-.85A4.73,4.73,0,0,1,51.73,16a4.47,4.47,0,0,1-.45-1.52,17.56,17.56,0,0,1-.12-2.26V5.92A3.63,3.63,0,0,0,51,4.83a.75.75,0,0,0-.47-.48,3.16,3.16,0,0,0-1-.15V3.8l1.1,0c.46,0,.94,0,1.46,0s.93,0,1.39,0l1.15,0v.4a3.26,3.26,0,0,0-1,.15.77.77,0,0,0-.47.48A3.63,3.63,0,0,0,53,5.92v6.62c0,.68,0,1.32.1,1.93a5.59,5.59,0,0,0,.41,1.6,2.43,2.43,0,0,0,.95,1.08,3.27,3.27,0,0,0,1.7.39,3.62,3.62,0,0,0,2.35-.67A3.47,3.47,0,0,0,59.69,15,9.88,9.88,0,0,0,60,12.36V6.12A2.91,2.91,0,0,0,59.85,5a1,1,0,0,0-.57-.58,2.77,2.77,0,0,0-1.08-.2V3.8l.95,0c.4,0,.76,0,1.09,0s.69,0,1,0Z" transform="translate(-1.62 -3.8)"/><path class="cls-1" d="M79.22,3.8v.4a3.26,3.26,0,0,0-1,.15.77.77,0,0,0-.47.48,3.63,3.63,0,0,0-.12,1.09v9.92a3.64,3.64,0,0,0,.12,1.08.73.73,0,0,0,.47.48,4.36,4.36,0,0,0,1,.16V18l-1.15-.05H75.22c-.45,0-.82,0-1.1.05v-.4a4.19,4.19,0,0,0,1-.16.71.71,0,0,0,.47-.48,3.64,3.64,0,0,0,.12-1.08v-11l.08.06-4.9,13.16H70.6l-5-13V15.64a4.12,4.12,0,0,0,.13,1.13.91.91,0,0,0,.52.58,3.71,3.71,0,0,0,1.17.21V18c-.24,0-.55,0-.94-.05H64.33l-.85.05v-.4a2.92,2.92,0,0,0,1-.21.87.87,0,0,0,.47-.58,4.18,4.18,0,0,0,.12-1.13V5.92A3.63,3.63,0,0,0,65,4.83a.75.75,0,0,0-.47-.48,3.16,3.16,0,0,0-1-.15V3.8l.85,0c.34,0,.68,0,1,0s.6,0,.91,0l.79,0,4.54,12-.34.16,4.5-12.06h.94c.47,0,.93,0,1.39,0Z" transform="translate(-1.62 -3.8)"/><path class="cls-1" d="M90.88,3.8c0,.47-.09.92-.11,1.36s0,.78,0,1,0,.47,0,.69,0,.4,0,.55h-.46A9.3,9.3,0,0,0,90,5.53a1.56,1.56,0,0,0-.75-1,3.43,3.43,0,0,0-1.59-.29H86a3.83,3.83,0,0,0-1,.11.7.7,0,0,0-.47.46,3.63,3.63,0,0,0-.12,1.09v9.92a3.64,3.64,0,0,0,.12,1.08.69.69,0,0,0,.47.47,3.83,3.83,0,0,0,1,.11h1.46a4.18,4.18,0,0,0,1.91-.34,1.93,1.93,0,0,0,.94-1.11A8.24,8.24,0,0,0,90.74,14h.46a13.66,13.66,0,0,0-.06,1.44c0,.25,0,.62,0,1.09s.06,1,.11,1.47L89,17.91h-4.9l-1.62,0L80.9,18v-.4a4.19,4.19,0,0,0,1-.16.71.71,0,0,0,.47-.48,3.64,3.64,0,0,0,.12-1.08V5.92a3.63,3.63,0,0,0-.12-1.09.75.75,0,0,0-.47-.48,3.16,3.16,0,0,0-1-.15V3.8l1.56,0,1.62,0h4.71C89.57,3.84,90.27,3.83,90.88,3.8Zm-3.44,6.84V11H83.78v-.4ZM88,8C88,8.76,88,9.34,88,9.74s0,.77,0,1.1,0,.7,0,1.1,0,1,.1,1.74h-.46c-.05-.43-.11-.84-.19-1.25a1.85,1.85,0,0,0-.48-1A1.66,1.66,0,0,0,85.7,11v-.4a1.62,1.62,0,0,0,1-.27,1.46,1.46,0,0,0,.51-.69,3.7,3.7,0,0,0,.22-.87q.06-.45.12-.81Z" transform="translate(-1.62 -3.8)"/></svg>